<mxfile host="app.diagrams.net" agent="Mozilla/5.0 (Windows NT 10.0; Win64; x64) AppleWebKit/537.36 (KHTML, like Gecko) Chrome/129.0.0.0 Safari/537.36" version="24.7.17">
  <diagram name="Page-1" id="7fIDKA-93SOCSBMRQtYT">
    <mxGraphModel dx="1642" dy="1131" grid="1" gridSize="10" guides="1" tooltips="1" connect="1" arrows="1" fold="1" page="1" pageScale="1" pageWidth="850" pageHeight="1100" math="0" shadow="0">
      <root>
        <mxCell id="0" />
        <mxCell id="1" parent="0" />
        <mxCell id="BI8oBpHnwKxjbGYGzi1u-6" value="team" style="swimlane;fontStyle=0;childLayout=stackLayout;horizontal=1;startSize=26;fillColor=none;horizontalStack=0;resizeParent=1;resizeParentMax=0;resizeLast=0;collapsible=1;marginBottom=0;whiteSpace=wrap;html=1;" parent="1" vertex="1">
          <mxGeometry x="-270" y="120" width="140" height="78" as="geometry" />
        </mxCell>
        <mxCell id="BI8oBpHnwKxjbGYGzi1u-7" value="team_id (int)" style="text;strokeColor=none;fillColor=none;align=left;verticalAlign=top;spacingLeft=4;spacingRight=4;overflow=hidden;rotatable=0;points=[[0,0.5],[1,0.5]];portConstraint=eastwest;whiteSpace=wrap;html=1;" parent="BI8oBpHnwKxjbGYGzi1u-6" vertex="1">
          <mxGeometry y="26" width="140" height="26" as="geometry" />
        </mxCell>
        <mxCell id="BI8oBpHnwKxjbGYGzi1u-8" value="team_name (varchar&lt;span style=&quot;background-color: initial;&quot;&gt;)&lt;/span&gt;" style="text;strokeColor=none;fillColor=none;align=left;verticalAlign=top;spacingLeft=4;spacingRight=4;overflow=hidden;rotatable=0;points=[[0,0.5],[1,0.5]];portConstraint=eastwest;whiteSpace=wrap;html=1;" parent="BI8oBpHnwKxjbGYGzi1u-6" vertex="1">
          <mxGeometry y="52" width="140" height="26" as="geometry" />
        </mxCell>
        <mxCell id="BI8oBpHnwKxjbGYGzi1u-10" value="tournament" style="swimlane;fontStyle=0;childLayout=stackLayout;horizontal=1;startSize=26;fillColor=none;horizontalStack=0;resizeParent=1;resizeParentMax=0;resizeLast=0;collapsible=1;marginBottom=0;whiteSpace=wrap;html=1;" parent="1" vertex="1">
          <mxGeometry x="-260" y="300" width="200" height="136" as="geometry" />
        </mxCell>
        <mxCell id="BI8oBpHnwKxjbGYGzi1u-11" value="tournament_id (int)" style="text;strokeColor=none;fillColor=none;align=left;verticalAlign=top;spacingLeft=4;spacingRight=4;overflow=hidden;rotatable=0;points=[[0,0.5],[1,0.5]];portConstraint=eastwest;whiteSpace=wrap;html=1;" parent="BI8oBpHnwKxjbGYGzi1u-10" vertex="1">
          <mxGeometry y="26" width="200" height="26" as="geometry" />
        </mxCell>
        <mxCell id="BI8oBpHnwKxjbGYGzi1u-12" value="tournament_name (varchar)" style="text;strokeColor=none;fillColor=none;align=left;verticalAlign=top;spacingLeft=4;spacingRight=4;overflow=hidden;rotatable=0;points=[[0,0.5],[1,0.5]];portConstraint=eastwest;whiteSpace=wrap;html=1;" parent="BI8oBpHnwKxjbGYGzi1u-10" vertex="1">
          <mxGeometry y="52" width="200" height="28" as="geometry" />
        </mxCell>
        <mxCell id="BI8oBpHnwKxjbGYGzi1u-13" value="start_datebigit (date)" style="text;strokeColor=none;fillColor=none;align=left;verticalAlign=top;spacingLeft=4;spacingRight=4;overflow=hidden;rotatable=0;points=[[0,0.5],[1,0.5]];portConstraint=eastwest;whiteSpace=wrap;html=1;" parent="BI8oBpHnwKxjbGYGzi1u-10" vertex="1">
          <mxGeometry y="80" width="200" height="30" as="geometry" />
        </mxCell>
        <mxCell id="BI8oBpHnwKxjbGYGzi1u-16" value="end_date (date)" style="text;strokeColor=none;fillColor=none;align=left;verticalAlign=top;spacingLeft=4;spacingRight=4;overflow=hidden;rotatable=0;points=[[0,0.5],[1,0.5]];portConstraint=eastwest;whiteSpace=wrap;html=1;" parent="BI8oBpHnwKxjbGYGzi1u-10" vertex="1">
          <mxGeometry y="110" width="200" height="26" as="geometry" />
        </mxCell>
        <mxCell id="BI8oBpHnwKxjbGYGzi1u-22" value="user" style="swimlane;fontStyle=0;childLayout=stackLayout;horizontal=1;startSize=26;fillColor=none;horizontalStack=0;resizeParent=1;resizeParentMax=0;resizeLast=0;collapsible=1;marginBottom=0;whiteSpace=wrap;html=1;" parent="1" vertex="1">
          <mxGeometry x="-440" y="770" width="200" height="110" as="geometry" />
        </mxCell>
        <mxCell id="BI8oBpHnwKxjbGYGzi1u-24" value="uer_id (int)" style="text;strokeColor=none;fillColor=none;align=left;verticalAlign=top;spacingLeft=4;spacingRight=4;overflow=hidden;rotatable=0;points=[[0,0.5],[1,0.5]];portConstraint=eastwest;whiteSpace=wrap;html=1;" parent="BI8oBpHnwKxjbGYGzi1u-22" vertex="1">
          <mxGeometry y="26" width="200" height="28" as="geometry" />
        </mxCell>
        <mxCell id="BI8oBpHnwKxjbGYGzi1u-23" value="username (varchar)" style="text;strokeColor=none;fillColor=none;align=left;verticalAlign=top;spacingLeft=4;spacingRight=4;overflow=hidden;rotatable=0;points=[[0,0.5],[1,0.5]];portConstraint=eastwest;whiteSpace=wrap;html=1;" parent="BI8oBpHnwKxjbGYGzi1u-22" vertex="1">
          <mxGeometry y="54" width="200" height="26" as="geometry" />
        </mxCell>
        <mxCell id="BI8oBpHnwKxjbGYGzi1u-25" value="is_admin (boolean)" style="text;strokeColor=none;fillColor=none;align=left;verticalAlign=top;spacingLeft=4;spacingRight=4;overflow=hidden;rotatable=0;points=[[0,0.5],[1,0.5]];portConstraint=eastwest;whiteSpace=wrap;html=1;" parent="BI8oBpHnwKxjbGYGzi1u-22" vertex="1">
          <mxGeometry y="80" width="200" height="30" as="geometry" />
        </mxCell>
        <mxCell id="BI8oBpHnwKxjbGYGzi1u-27" value="prediction" style="swimlane;fontStyle=0;childLayout=stackLayout;horizontal=1;startSize=26;fillColor=none;horizontalStack=0;resizeParent=1;resizeParentMax=0;resizeLast=0;collapsible=1;marginBottom=0;whiteSpace=wrap;html=1;" parent="1" vertex="1">
          <mxGeometry x="-790" y="400" width="200" height="196" as="geometry" />
        </mxCell>
        <mxCell id="BI8oBpHnwKxjbGYGzi1u-28" value="prediction_id (int)" style="text;strokeColor=none;fillColor=none;align=left;verticalAlign=top;spacingLeft=4;spacingRight=4;overflow=hidden;rotatable=0;points=[[0,0.5],[1,0.5]];portConstraint=eastwest;whiteSpace=wrap;html=1;" parent="BI8oBpHnwKxjbGYGzi1u-27" vertex="1">
          <mxGeometry y="26" width="200" height="26" as="geometry" />
        </mxCell>
        <mxCell id="BI8oBpHnwKxjbGYGzi1u-29" value="user_id (int)" style="text;strokeColor=none;fillColor=none;align=left;verticalAlign=top;spacingLeft=4;spacingRight=4;overflow=hidden;rotatable=0;points=[[0,0.5],[1,0.5]];portConstraint=eastwest;whiteSpace=wrap;html=1;" parent="BI8oBpHnwKxjbGYGzi1u-27" vertex="1">
          <mxGeometry y="52" width="200" height="28" as="geometry" />
        </mxCell>
        <mxCell id="BI8oBpHnwKxjbGYGzi1u-30" value="match_id (int)" style="text;strokeColor=none;fillColor=none;align=left;verticalAlign=top;spacingLeft=4;spacingRight=4;overflow=hidden;rotatable=0;points=[[0,0.5],[1,0.5]];portConstraint=eastwest;whiteSpace=wrap;html=1;" parent="BI8oBpHnwKxjbGYGzi1u-27" vertex="1">
          <mxGeometry y="80" width="200" height="30" as="geometry" />
        </mxCell>
        <mxCell id="BI8oBpHnwKxjbGYGzi1u-31" value="team1_predicted_goals (int)" style="text;strokeColor=none;fillColor=none;align=left;verticalAlign=top;spacingLeft=4;spacingRight=4;overflow=hidden;rotatable=0;points=[[0,0.5],[1,0.5]];portConstraint=eastwest;whiteSpace=wrap;html=1;" parent="BI8oBpHnwKxjbGYGzi1u-27" vertex="1">
          <mxGeometry y="110" width="200" height="26" as="geometry" />
        </mxCell>
        <mxCell id="BI8oBpHnwKxjbGYGzi1u-32" value="team2_predicted_goals (int)" style="text;strokeColor=none;fillColor=none;align=left;verticalAlign=top;spacingLeft=4;spacingRight=4;overflow=hidden;rotatable=0;points=[[0,0.5],[1,0.5]];portConstraint=eastwest;whiteSpace=wrap;html=1;" parent="BI8oBpHnwKxjbGYGzi1u-27" vertex="1">
          <mxGeometry y="136" width="200" height="30" as="geometry" />
        </mxCell>
        <mxCell id="BI8oBpHnwKxjbGYGzi1u-33" value="points_earned (int)" style="text;strokeColor=none;fillColor=none;align=left;verticalAlign=top;spacingLeft=4;spacingRight=4;overflow=hidden;rotatable=0;points=[[0,0.5],[1,0.5]];portConstraint=eastwest;whiteSpace=wrap;html=1;" parent="BI8oBpHnwKxjbGYGzi1u-27" vertex="1">
          <mxGeometry y="166" width="200" height="30" as="geometry" />
        </mxCell>
        <mxCell id="BI8oBpHnwKxjbGYGzi1u-34" value="leaderboard" style="swimlane;fontStyle=0;childLayout=stackLayout;horizontal=1;startSize=26;fillColor=none;horizontalStack=0;resizeParent=1;resizeParentMax=0;resizeLast=0;collapsible=1;marginBottom=0;whiteSpace=wrap;html=1;" parent="1" vertex="1">
          <mxGeometry x="-430" y="540" width="200" height="136" as="geometry" />
        </mxCell>
        <mxCell id="BI8oBpHnwKxjbGYGzi1u-35" value="leaderboard_id (int)" style="text;strokeColor=none;fillColor=none;align=left;verticalAlign=top;spacingLeft=4;spacingRight=4;overflow=hidden;rotatable=0;points=[[0,0.5],[1,0.5]];portConstraint=eastwest;whiteSpace=wrap;html=1;" parent="BI8oBpHnwKxjbGYGzi1u-34" vertex="1">
          <mxGeometry y="26" width="200" height="26" as="geometry" />
        </mxCell>
        <mxCell id="BI8oBpHnwKxjbGYGzi1u-36" value="tournament_id (int)" style="text;strokeColor=none;fillColor=none;align=left;verticalAlign=top;spacingLeft=4;spacingRight=4;overflow=hidden;rotatable=0;points=[[0,0.5],[1,0.5]];portConstraint=eastwest;whiteSpace=wrap;html=1;" parent="BI8oBpHnwKxjbGYGzi1u-34" vertex="1">
          <mxGeometry y="52" width="200" height="28" as="geometry" />
        </mxCell>
        <mxCell id="BI8oBpHnwKxjbGYGzi1u-37" value="user_id (int)" style="text;strokeColor=none;fillColor=none;align=left;verticalAlign=top;spacingLeft=4;spacingRight=4;overflow=hidden;rotatable=0;points=[[0,0.5],[1,0.5]];portConstraint=eastwest;whiteSpace=wrap;html=1;" parent="BI8oBpHnwKxjbGYGzi1u-34" vertex="1">
          <mxGeometry y="80" width="200" height="30" as="geometry" />
        </mxCell>
        <mxCell id="BI8oBpHnwKxjbGYGzi1u-38" value="total_id (int)" style="text;strokeColor=none;fillColor=none;align=left;verticalAlign=top;spacingLeft=4;spacingRight=4;overflow=hidden;rotatable=0;points=[[0,0.5],[1,0.5]];portConstraint=eastwest;whiteSpace=wrap;html=1;" parent="BI8oBpHnwKxjbGYGzi1u-34" vertex="1">
          <mxGeometry y="110" width="200" height="26" as="geometry" />
        </mxCell>
        <mxCell id="BI8oBpHnwKxjbGYGzi1u-39" value="match" style="swimlane;fontStyle=0;childLayout=stackLayout;horizontal=1;startSize=26;fillColor=none;horizontalStack=0;resizeParent=1;resizeParentMax=0;resizeLast=0;collapsible=1;marginBottom=0;whiteSpace=wrap;html=1;" parent="1" vertex="1">
          <mxGeometry x="-540" y="160" width="200" height="248" as="geometry" />
        </mxCell>
        <mxCell id="BI8oBpHnwKxjbGYGzi1u-40" value="match_id (int)" style="text;strokeColor=none;fillColor=none;align=left;verticalAlign=top;spacingLeft=4;spacingRight=4;overflow=hidden;rotatable=0;points=[[0,0.5],[1,0.5]];portConstraint=eastwest;whiteSpace=wrap;html=1;" parent="BI8oBpHnwKxjbGYGzi1u-39" vertex="1">
          <mxGeometry y="26" width="200" height="26" as="geometry" />
        </mxCell>
        <mxCell id="BI8oBpHnwKxjbGYGzi1u-41" value="tournament_id (int)" style="text;strokeColor=none;fillColor=none;align=left;verticalAlign=top;spacingLeft=4;spacingRight=4;overflow=hidden;rotatable=0;points=[[0,0.5],[1,0.5]];portConstraint=eastwest;whiteSpace=wrap;html=1;" parent="BI8oBpHnwKxjbGYGzi1u-39" vertex="1">
          <mxGeometry y="52" width="200" height="28" as="geometry" />
        </mxCell>
        <mxCell id="BI8oBpHnwKxjbGYGzi1u-42" value="team1_id (int)" style="text;strokeColor=none;fillColor=none;align=left;verticalAlign=top;spacingLeft=4;spacingRight=4;overflow=hidden;rotatable=0;points=[[0,0.5],[1,0.5]];portConstraint=eastwest;whiteSpace=wrap;html=1;" parent="BI8oBpHnwKxjbGYGzi1u-39" vertex="1">
          <mxGeometry y="80" width="200" height="30" as="geometry" />
        </mxCell>
        <mxCell id="BI8oBpHnwKxjbGYGzi1u-43" value="team2_id (int)" style="text;strokeColor=none;fillColor=none;align=left;verticalAlign=top;spacingLeft=4;spacingRight=4;overflow=hidden;rotatable=0;points=[[0,0.5],[1,0.5]];portConstraint=eastwest;whiteSpace=wrap;html=1;" parent="BI8oBpHnwKxjbGYGzi1u-39" vertex="1">
          <mxGeometry y="110" width="200" height="26" as="geometry" />
        </mxCell>
        <mxCell id="BI8oBpHnwKxjbGYGzi1u-44" value="match_time (datetime)" style="text;strokeColor=none;fillColor=none;align=left;verticalAlign=top;spacingLeft=4;spacingRight=4;overflow=hidden;rotatable=0;points=[[0,0.5],[1,0.5]];portConstraint=eastwest;whiteSpace=wrap;html=1;" parent="BI8oBpHnwKxjbGYGzi1u-39" vertex="1">
          <mxGeometry y="136" width="200" height="28" as="geometry" />
        </mxCell>
        <mxCell id="BI8oBpHnwKxjbGYGzi1u-45" value="round (enum)" style="text;strokeColor=none;fillColor=none;align=left;verticalAlign=top;spacingLeft=4;spacingRight=4;overflow=hidden;rotatable=0;points=[[0,0.5],[1,0.5]];portConstraint=eastwest;whiteSpace=wrap;html=1;" parent="BI8oBpHnwKxjbGYGzi1u-39" vertex="1">
          <mxGeometry y="164" width="200" height="28" as="geometry" />
        </mxCell>
        <mxCell id="BI8oBpHnwKxjbGYGzi1u-46" value="team1_goals (int)" style="text;strokeColor=none;fillColor=none;align=left;verticalAlign=top;spacingLeft=4;spacingRight=4;overflow=hidden;rotatable=0;points=[[0,0.5],[1,0.5]];portConstraint=eastwest;whiteSpace=wrap;html=1;" parent="BI8oBpHnwKxjbGYGzi1u-39" vertex="1">
          <mxGeometry y="192" width="200" height="28" as="geometry" />
        </mxCell>
        <mxCell id="BI8oBpHnwKxjbGYGzi1u-47" value="team2_goals (int)" style="text;strokeColor=none;fillColor=none;align=left;verticalAlign=top;spacingLeft=4;spacingRight=4;overflow=hidden;rotatable=0;points=[[0,0.5],[1,0.5]];portConstraint=eastwest;whiteSpace=wrap;html=1;" parent="BI8oBpHnwKxjbGYGzi1u-39" vertex="1">
          <mxGeometry y="220" width="200" height="28" as="geometry" />
        </mxCell>
        <mxCell id="BI8oBpHnwKxjbGYGzi1u-48" style="edgeStyle=orthogonalEdgeStyle;rounded=0;orthogonalLoop=1;jettySize=auto;html=1;exitX=1;exitY=0.5;exitDx=0;exitDy=0;entryX=0;entryY=0.5;entryDx=0;entryDy=0;" parent="1" source="BI8oBpHnwKxjbGYGzi1u-42" target="BI8oBpHnwKxjbGYGzi1u-7" edge="1">
          <mxGeometry relative="1" as="geometry" />
        </mxCell>
        <mxCell id="BI8oBpHnwKxjbGYGzi1u-49" style="edgeStyle=orthogonalEdgeStyle;rounded=0;orthogonalLoop=1;jettySize=auto;html=1;exitX=1;exitY=0.5;exitDx=0;exitDy=0;entryX=0;entryY=0.5;entryDx=0;entryDy=0;" parent="1" source="BI8oBpHnwKxjbGYGzi1u-43" target="BI8oBpHnwKxjbGYGzi1u-7" edge="1">
          <mxGeometry relative="1" as="geometry" />
        </mxCell>
        <mxCell id="BI8oBpHnwKxjbGYGzi1u-50" style="edgeStyle=orthogonalEdgeStyle;rounded=0;orthogonalLoop=1;jettySize=auto;html=1;exitX=1;exitY=0.5;exitDx=0;exitDy=0;entryX=0;entryY=0.5;entryDx=0;entryDy=0;" parent="1" source="BI8oBpHnwKxjbGYGzi1u-41" target="BI8oBpHnwKxjbGYGzi1u-11" edge="1">
          <mxGeometry relative="1" as="geometry" />
        </mxCell>
        <mxCell id="BI8oBpHnwKxjbGYGzi1u-51" style="edgeStyle=orthogonalEdgeStyle;rounded=0;orthogonalLoop=1;jettySize=auto;html=1;exitX=0;exitY=0.5;exitDx=0;exitDy=0;entryX=1;entryY=0.5;entryDx=0;entryDy=0;" parent="1" source="BI8oBpHnwKxjbGYGzi1u-11" target="BI8oBpHnwKxjbGYGzi1u-34" edge="1">
          <mxGeometry relative="1" as="geometry" />
        </mxCell>
        <mxCell id="BI8oBpHnwKxjbGYGzi1u-52" style="edgeStyle=orthogonalEdgeStyle;rounded=0;orthogonalLoop=1;jettySize=auto;html=1;exitX=0;exitY=0.5;exitDx=0;exitDy=0;entryX=0;entryY=0.5;entryDx=0;entryDy=0;" parent="1" source="BI8oBpHnwKxjbGYGzi1u-37" target="BI8oBpHnwKxjbGYGzi1u-24" edge="1">
          <mxGeometry relative="1" as="geometry" />
        </mxCell>
        <mxCell id="BI8oBpHnwKxjbGYGzi1u-53" style="edgeStyle=orthogonalEdgeStyle;rounded=0;orthogonalLoop=1;jettySize=auto;html=1;exitX=1;exitY=0.5;exitDx=0;exitDy=0;entryX=0;entryY=0.5;entryDx=0;entryDy=0;" parent="1" source="BI8oBpHnwKxjbGYGzi1u-29" target="BI8oBpHnwKxjbGYGzi1u-24" edge="1">
          <mxGeometry relative="1" as="geometry" />
        </mxCell>
        <mxCell id="BI8oBpHnwKxjbGYGzi1u-54" style="edgeStyle=orthogonalEdgeStyle;rounded=0;orthogonalLoop=1;jettySize=auto;html=1;exitX=0;exitY=0.5;exitDx=0;exitDy=0;entryX=1;entryY=0.5;entryDx=0;entryDy=0;" parent="1" source="BI8oBpHnwKxjbGYGzi1u-40" target="BI8oBpHnwKxjbGYGzi1u-30" edge="1">
          <mxGeometry relative="1" as="geometry" />
        </mxCell>
      </root>
    </mxGraphModel>
  </diagram>
</mxfile>
